<svg id="Layer_1" data-name="Layer 1" xmlns="http://www.w3.org/2000/svg" viewBox="0 0 24 24"><defs><style>.cls-1{fill:#0c252d;}.cls-2{fill:#fff;}</style></defs><title>bg-section-bottom-desktop-1</title><rect class="cls-1" x="2.44" y="2.4" width="19.91" height="21.6"/><path class="cls-2" d="M14.34-32.24H-7a1.33,1.33,0,0,0-1.32,1.33V-9.56A1.32,1.32,0,0,0-7-8.24H4.49v-9.29H1.36v-3.62H4.49v-2.67c0-3.1,1.89-4.79,4.66-4.79a27,27,0,0,1,2.79.14v3.24H10c-1.51,0-1.8.72-1.8,1.77v2.31h3.59l-.47,3.62H8.23v9.29h6.12a1.32,1.32,0,0,0,1.32-1.32V-30.91A1.33,1.33,0,0,0,14.34-32.24Z" transform="translate(8.33 32.24)"/></svg>