<svg id="Layer_1" data-name="Layer 1" xmlns="http://www.w3.org/2000/svg" viewBox="0 0 487.02 88"><defs><style>.cls-1{fill:#0d252d;}.cls-2{fill:#fff;}</style></defs><title>logo.2</title><rect class="cls-1" width="487.02" height="88"/><path class="cls-2" d="M150.09,363.91c-13.25,0-27.07,3-41,6.85a7.14,7.14,0,0,0-4.42,2.95,11.4,11.4,0,0,0-1.41,4.13c-1.35,7.59-1.19,15.05-.9,23.31a11.74,11.74,0,0,0,1.22,5.5,6.28,6.28,0,0,0,4.39,2.54q3.63.53,7.26.9L114.68,425a3.19,3.19,0,0,0,1.21,2.74,4,4,0,0,0,2.1.77,4.19,4.19,0,0,0,4.07-2.16c3.76-7.24,6.12-10.44,10.83-15.25A342,342,0,0,0,168,409.82a9,9,0,0,0,8-6.42c2.32-7.26,2.69-16.22,2.93-25.27.11-3.59-1.14-7.11-3.34-9-2.1-1.7-4.64-2.31-7-2.94A89.22,89.22,0,0,0,150.09,363.91Zm17.64,5.68c2.33.63,4.38,1.24,5.68,2.29,2.16,2.3,2.09,3.83,2.06,6.3-.25,8.79-.67,17.31-2.65,23.77-.86,2.41-2.34,4.13-5.16,4.39-12.36.91-23.08,1.62-35.51,1.26a1.79,1.79,0,0,0-1.3.52c-5.22,5.27-7.89,8.94-11.87,16.59a.63.63,0,0,1-.54.3.25.25,0,0,1-.25-.25l.54-16.17a1.8,1.8,0,0,0-1.55-1.8q-4.37-.42-8.68-1.07c-1.25-.19-1.71-.53-2-1a8.65,8.65,0,0,1-.62-3.65c-.28-8.18-.42-15.34.84-22.46a10.18,10.18,0,0,1,.93-3c.69-1.08,1.75-1.24,2.82-1.54,13.64-3.77,27-6.58,39.56-6.59A86.28,86.28,0,0,1,167.73,369.59Zm-47.12,13.87a6.06,6.06,0,0,0-.24,7.36,5,5,0,0,0,3.38,2.13,6.27,6.27,0,0,0,4.34-1.47,6.11,6.11,0,0,0,.79-8.08,4.92,4.92,0,0,0-3.8-2.13,5.69,5.69,0,0,0-4.47,2.19Zm20.33-1.84a5.63,5.63,0,0,0-4.31,2.76,5.77,5.77,0,0,0-.82,5.57c1.65,3.77,7.33,3.73,9.6-.11a5.34,5.34,0,0,0,0-5.24,5.11,5.11,0,0,0-3.65-2.92A5.66,5.66,0,0,0,140.94,381.62Zm16.51.36a6.39,6.39,0,0,0-1.75.19,5.47,5.47,0,0,0-3.88,5.89,5.79,5.79,0,0,0,2.08,4,6,6,0,0,0,4.94,1.07,5.32,5.32,0,0,0,4-3.91,5.5,5.5,0,0,0-.71-4.83,5.93,5.93,0,0,0-4.66-2.37Zm-32.53,2.78a1.26,1.26,0,0,1,1.1.63,2.83,2.83,0,0,1-.22,3.44c-.77.67-1.25.73-1.58.68a1.52,1.52,0,0,1-1-.71,2.64,2.64,0,0,1,0-3.1,2.69,2.69,0,0,1,1.69-.94Zm16.27.39a2.84,2.84,0,0,1,1.14,1.09,1.74,1.74,0,0,1,.08,1.82c-1,1.68-3.09,1.23-3.41.5a3.28,3.28,0,0,1,.55-2.27,2.13,2.13,0,0,1,1.64-1.15Zm18.11,1.28a3.06,3.06,0,0,1,.17,1.85,1.63,1.63,0,0,1-1.34,1.39,2.24,2.24,0,0,1-2-.35,2.36,2.36,0,0,1-.79-1.58c-.15-1.58.41-1.95,1.31-2.19A2.72,2.72,0,0,1,159.3,386.43Z" transform="translate(-66.26 -352.63)"/><path class="cls-2" d="M200.92,371.45a2,2,0,0,1,.49-1.2,1.51,1.51,0,0,1,1.2-.54h11.71a2,2,0,0,1,1.22.5,1.49,1.49,0,0,1,.63,1.24v18.68h19.59V371.45a1.72,1.72,0,0,1,1.77-1.74h11.55a2.4,2.4,0,0,1,1.38.4,1.41,1.41,0,0,1,.59,1.26V426.5a1.58,1.58,0,0,1-.52,1.3,2,2,0,0,1-1.33.43H237.53a1.87,1.87,0,0,1-1.28-.43,1.63,1.63,0,0,1-.49-1.3V404.12H216.17V426.5a1.6,1.6,0,0,1-.53,1.28,2.18,2.18,0,0,1-1.44.45H202.61c-1.1,0-1.66-.51-1.69-1.53Zm107.82,56.12a2.53,2.53,0,0,1-1.08.55,6.61,6.61,0,0,1-1.08.12h-6a2.71,2.71,0,0,1-1.22-.26,2.66,2.66,0,0,1-.87-.69,4.12,4.12,0,0,1-.59-1,9,9,0,0,1-.39-1.14l-1.22-5a19.44,19.44,0,0,1-1.72,2.77,14.35,14.35,0,0,1-2.85,2.92,16,16,0,0,1-4.14,2.29,15.43,15.43,0,0,1-5.52.92,18.54,18.54,0,0,1-14.4-6.46,21.64,21.64,0,0,1-4-7,25.2,25.2,0,0,1-1.42-8.53V381.22a3.47,3.47,0,0,1,.65-2.27,2.56,2.56,0,0,1,2.07-.76h9.1a3.55,3.55,0,0,1,2.33.57,3,3,0,0,1,.63,2.22v25.66a6.91,6.91,0,0,0,.77,3.21,9.14,9.14,0,0,0,2,2.68,9.52,9.52,0,0,0,2.85,1.83A8.3,8.3,0,0,0,286,415a7.19,7.19,0,0,0,2.94-.67,10.85,10.85,0,0,0,2.8-1.79,9.86,9.86,0,0,0,2.11-2.64,6.61,6.61,0,0,0,.82-3.21V381.1a3.79,3.79,0,0,1,.26-1.34,2.12,2.12,0,0,1,.77-1,3.67,3.67,0,0,1,1-.44,4.74,4.74,0,0,1,1.05-.12h8.91a2.78,2.78,0,0,1,3.19,3v44.1a2.82,2.82,0,0,1-.34,1.38,2.42,2.42,0,0,1-.92,1Zm45.76-5.44c-.71.71-1.5,1.47-2.35,2.28a22.15,22.15,0,0,1-2.82,2.29,15.88,15.88,0,0,1-3.31,1.75,10.38,10.38,0,0,1-3.82.69,24,24,0,0,1-9.87-2,23.65,23.65,0,0,1-7.77-5.5,25.36,25.36,0,0,1-5.08-8.21,29.23,29.23,0,0,1,0-20.36,25.37,25.37,0,0,1,5.08-8.19,23.31,23.31,0,0,1,7.77-5.48,24.15,24.15,0,0,1,9.87-2,11.83,11.83,0,0,1,4,.63,14.83,14.83,0,0,1,3.27,1.61,17.75,17.75,0,0,1,2.72,2.23c.83.83,1.61,1.64,2.35,2.42v-18a3.08,3.08,0,0,1,.76-2.12,2.93,2.93,0,0,1,2.31-.87h8.87a2.93,2.93,0,0,1,1.08.22,3.47,3.47,0,0,1,1.05.61,3.15,3.15,0,0,1,.76.94,2.53,2.53,0,0,1,.3,1.22V425.2c0,2-1.06,3-3.19,3h-7.73a3.06,3.06,0,0,1-1.22-.2,2,2,0,0,1-.73-.57,3.85,3.85,0,0,1-.53-1c-.19-.44-.38-.88-.59-1.32l-1.14-3.07Zm-22.66-18.88a14.42,14.42,0,0,0,.8,4.87A11.53,11.53,0,0,0,335,412a10.9,10.9,0,0,0,8.28,3.58,12.49,12.49,0,0,0,4.74-.9,12,12,0,0,0,3.88-2.51,12.33,12.33,0,0,0,2.67-3.76,12.51,12.51,0,0,0,1.12-4.65v-.55a12.43,12.43,0,0,0-.95-4.81,12.75,12.75,0,0,0-2.62-4,12.42,12.42,0,0,0-3.94-2.74,12,12,0,0,0-4.9-1,10.76,10.76,0,0,0-4.68,1,11,11,0,0,0-3.6,2.74,12.43,12.43,0,0,0-2.31,4,14.33,14.33,0,0,0-.8,4.81Zm83.54,18.88q-1.06,1.06-2.34,2.28a23.65,23.65,0,0,1-2.82,2.29,15.88,15.88,0,0,1-3.31,1.75,10.41,10.41,0,0,1-3.82.69,23.93,23.93,0,0,1-9.87-2,23.51,23.51,0,0,1-7.77-5.5,25.19,25.19,0,0,1-5.08-8.21,29.08,29.08,0,0,1,0-20.36,25.2,25.2,0,0,1,5.08-8.19,23.31,23.31,0,0,1,7.77-5.48,24.08,24.08,0,0,1,9.87-2,11.92,11.92,0,0,1,4,.63,14.83,14.83,0,0,1,3.27,1.61,18.24,18.24,0,0,1,2.72,2.23c.83.83,1.61,1.64,2.34,2.42v-18a3.09,3.09,0,0,1,.77-2.12,2.91,2.91,0,0,1,2.31-.87h8.86a2.94,2.94,0,0,1,1.09.22,3.31,3.31,0,0,1,1,.61,3.18,3.18,0,0,1,.77.94,2.53,2.53,0,0,1,.3,1.22V425.2c0,2-1.07,3-3.2,3H419.6a3,3,0,0,1-1.22-.2,2,2,0,0,1-.73-.57,3.85,3.85,0,0,1-.53-1c-.19-.44-.39-.88-.59-1.32l-1.15-3.07Zm-22.66-18.88a14.43,14.43,0,0,0,.81,4.87,11.53,11.53,0,0,0,2.31,3.92,11,11,0,0,0,3.6,2.62,11.15,11.15,0,0,0,4.67,1,12.58,12.58,0,0,0,4.75-.9,12.1,12.1,0,0,0,3.88-2.51,12.52,12.52,0,0,0,3.79-8.41v-.55a12.61,12.61,0,0,0-.95-4.81,12.75,12.75,0,0,0-2.62-4,12.42,12.42,0,0,0-3.94-2.74,12,12,0,0,0-4.91-1,10.72,10.72,0,0,0-4.67,1,10.94,10.94,0,0,0-3.6,2.74,12.43,12.43,0,0,0-2.31,4,14.59,14.59,0,0,0-.81,4.81ZM441,366.32a3.48,3.48,0,0,1,.63-2.12,2.5,2.5,0,0,1,2.17-.87h9.65a1.78,1.78,0,0,1,.83.22,2.83,2.83,0,0,1,.81.61,3.52,3.52,0,0,1,.63.94,2.9,2.9,0,0,1,.26,1.22V425.2a2.94,2.94,0,0,1-.85,2.27,3.16,3.16,0,0,1-2.19.76H443.8a2.67,2.67,0,0,1-2.17-.76,3.53,3.53,0,0,1-.63-2.27Zm66.36,55.92a26,26,0,0,1-7.8,5,23.68,23.68,0,0,1-9.18,1.79,26.77,26.77,0,0,1-18.64-7.43,26.15,26.15,0,0,1-5.75-8.21,24.75,24.75,0,0,1-2.13-10.29,26.45,26.45,0,0,1,3.25-12.81,26.22,26.22,0,0,1,3.78-5.22,23.88,23.88,0,0,1,5-4.08,24.66,24.66,0,0,1,6-2.64,24.13,24.13,0,0,1,6.81-.94,23.23,23.23,0,0,1,6.35.87,24.35,24.35,0,0,1,5.77,2.44,25.16,25.16,0,0,1,4.95,3.78,25.67,25.67,0,0,1,3.86,4.83,23.05,23.05,0,0,1,2.5,5.6A21.32,21.32,0,0,1,513,401c0,1.37,0,2.49-.06,3.35a3.76,3.76,0,0,1-.61,2.07,2.91,2.91,0,0,1-1.83,1.06,17.76,17.76,0,0,1-3.77.3H478.36A9.8,9.8,0,0,0,480,412a10.2,10.2,0,0,0,2.78,2.7,11.14,11.14,0,0,0,3.35,1.44,14.05,14.05,0,0,0,3.35.43,14.85,14.85,0,0,0,2.92-.3,21.05,21.05,0,0,0,2.9-.78,16.29,16.29,0,0,0,2.56-1.15,8.22,8.22,0,0,0,1.87-1.36,9.57,9.57,0,0,1,1.08-.77,2,2,0,0,1,1-.25,1.9,1.9,0,0,1,1,.35,7.94,7.94,0,0,1,1.2,1l4.18,4.73a2.5,2.5,0,0,1,.55.92,3.06,3.06,0,0,1,.12.85,2.17,2.17,0,0,1-.43,1.36,4.88,4.88,0,0,1-1,1Zm-18.95-32.82a7.5,7.5,0,0,0-3,.61,11.1,11.1,0,0,0-2.7,1.63,14.85,14.85,0,0,0-3.9,5H499a23.81,23.81,0,0,0-1.79-2.84,12.56,12.56,0,0,0-2.21-2.28,9.55,9.55,0,0,0-2.84-1.54A11.3,11.3,0,0,0,488.41,389.42Z" transform="translate(-66.26 -352.63)"/></svg>